<svg xmlns="http://www.w3.org/2000/svg" viewBox="0 0 1200 800">
  <defs>
    <linearGradient id="g1" x1="0" x2="1" y1="0" y2="1">
      <stop offset="0%" stop-color="#7c3aed"/>
      <stop offset="100%" stop-color="#a855f7"/>
    </linearGradient>
  </defs>
  <rect width="1200" height="800" rx="40" fill="#1f2937"/>
  <rect x="80" y="100" width="1040" height="190" rx="24" fill="#0f172a" stroke="#334155" stroke-width="4"/>
  <circle cx="160" cy="195" r="18" fill="#ef4444"/>
  <circle cx="210" cy="195" r="18" fill="#f59e0b"/>
  <circle cx="260" cy="195" r="18" fill="#22c55e"/>
  <rect x="140" y="280" width="820" height="380" rx="24" fill="url(#g1)" opacity="0.95"/>
  <path d="M220 350h620v260H220z" fill="#0f172a"/>
  <path d="M280 390h120v28H280z" fill="#fff" opacity="0.85"/>
  <path d="M420 390h240v28H420z" fill="#fff" opacity="0.7"/>
  <path d="M280 440h520v24H280z" fill="#c7d2fe" opacity="0.85"/>
  <path d="M280 490h420v24H280z" fill="#e0e7ff" opacity="0.7"/>
  <path d="M280 540h300v24H280z" fill="#c7d2fe" opacity="0.85"/>
  <path d="M280 600h560v24H280z" fill="#e0e7ff" opacity="0.7"/>
</svg>